<?xml version="1.0" encoding="utf-8"?>
<!-- Generator: Adobe Illustrator 24.3.0, SVG Export Plug-In . SVG Version: 6.00 Build 0)  -->
<svg version="1.1" id="Layer_1" xmlns="http://www.w3.org/2000/svg" xmlns:xlink="http://www.w3.org/1999/xlink" x="0px" y="0px"
	 viewBox="0 0 155.2 41.6" style="enable-background:new 0 0 155.2 41.6;" xml:space="preserve">
<style type="text/css">
	.st0{display:none;}
	.st1{display:inline;fill:#00BFD8;}
	.st2{display:inline;fill:#FFFFFF;}
	.st3{display:inline;fill:#393939;}
	.st4{fill:#C0C0C0;}
	.st5{font-family:'Broadway';}
	.st6{font-size:40.6123px;}
	.st7{font-family:'Microsoft-Yi-Baiti';}
	.st8{font-size:22.2349px;}
	.st9{font-family:'ProximaNovaA-Light';}
	.st10{font-size:6px;}
</style>
<g id="Layer_3" class="st0">
	<circle class="st1" cx="20.8" cy="20.8" r="20.8"/>
	<path class="st2" d="M19.2,30.4c-1.1,0-2.3-0.2-3.3-0.6c-1.9-0.8-3.4-2.4-4.1-4.3c-0.4-1.1-0.6-2.2-0.5-3.3c0-1.6,0.3-3.2,1-4.6
		c0.6-1.4,1.5-2.7,2.6-3.8s2.5-2,3.9-2.6c1.5-0.7,3.2-1,4.9-1c1.8-0.1,3.6,0.4,5.1,1.4c1.3,1,2,2.5,1.9,4.1c0,4.2-3.8,6.3-11.3,6.3
		H18c-0.5,0-1,0-1.5-0.1v0.5c-0.1,1.1,0.3,2.3,0.9,3.2c0.7,0.9,1.7,1.3,2.8,1.2c1,0,2-0.2,2.8-0.7c0.9-0.5,1.6-1.1,2.1-2l4,1.2
		c-0.5,0.8-1.1,1.5-1.8,2.1c-0.7,0.6-1.5,1.2-2.4,1.6c-1,0.4-1.9,0.8-2.9,1C21.1,30.3,20.1,30.4,19.2,30.4z M22.8,13.7
		c-0.7,0-1.4,0.1-2,0.4c-0.6,0.3-1.2,0.6-1.7,1.1s-0.9,1-1.3,1.6c-0.4,0.6-0.7,1.2-0.9,1.9c0.4,0,0.8,0,1.2,0h1.2c1,0,2-0.1,3-0.2
		c0.7-0.1,1.4-0.3,2-0.6c0.4-0.2,0.8-0.5,1.1-0.9c0.2-0.3,0.3-0.8,0.3-1.2c0-0.7-0.3-1.3-0.8-1.6C24.3,13.9,23.5,13.7,22.8,13.7
		L22.8,13.7L22.8,13.7z"/>
	<path class="st3" d="M72.6,31.6v4.1H52.5V6.4h19.7v4.1H57.1v8.3h13.1v3.8H57.1v9C57.1,31.6,72.6,31.6,72.6,31.6z"/>
	<path class="st3" d="M81.6,35.7l-8.3-21.6H78l6.2,17.7l6.2-17.7h4.3l-8.3,21.6C86.4,35.7,81.6,35.7,81.6,35.7z"/>
	<path class="st3" d="M106.9,36.1c-1.6,0-3.1-0.3-4.6-0.9c-2.6-1.1-4.7-3.3-5.7-6c-1-2.8-1-5.8,0-8.5c0.5-1.3,1.3-2.5,2.2-3.6
		c1-1,2.2-1.9,3.5-2.4c2.9-1.2,6.2-1.2,9.1,0c1.3,0.6,2.5,1.4,3.5,2.4s1.7,2.2,2.2,3.6c1,2.8,1,5.8,0,8.5c-0.5,1.3-1.3,2.5-2.3,3.6
		c-1,1-2.2,1.9-3.5,2.4C110,35.8,108.4,36.1,106.9,36.1z M100.4,25c0,1,0.2,2,0.5,2.9c0.3,0.8,0.8,1.6,1.4,2.3
		c0.6,0.6,1.3,1.2,2,1.5c1.6,0.7,3.5,0.7,5.1,0c0.8-0.4,1.5-0.9,2-1.5c0.6-0.7,1.1-1.5,1.4-2.3c0.7-1.9,0.7-3.9,0-5.8
		c-0.3-0.9-0.8-1.6-1.4-2.3c-0.6-0.7-1.3-1.2-2-1.5c-0.8-0.4-1.7-0.6-2.5-0.6c-0.9,0-1.7,0.2-2.5,0.6s-1.5,0.9-2,1.6
		c-0.6,0.7-1.1,1.5-1.4,2.3C100.6,23,100.4,24,100.4,25z"/>
	<path class="st3" d="M122.1,5.6h4.5v23.9c0,0.7,0.2,1.4,0.6,1.9s1.1,0.7,1.7,0.7c0.4,0,0.7-0.1,1.1-0.2c0.4-0.1,0.8-0.2,1.1-0.4
		l0.7,3.6c-0.8,0.3-1.5,0.6-2.4,0.7c-0.8,0.2-1.6,0.3-2.4,0.3c-1.3,0.1-2.7-0.4-3.7-1.3c-0.9-1-1.4-2.3-1.3-3.6L122.1,5.6L122.1,5.6
		L122.1,5.6z"/>
	<path class="st3" d="M144.1,36.1c-1.6,0-3.1-0.3-4.6-0.9c-2.6-1.1-4.7-3.3-5.7-6c-1-2.8-1-5.8,0-8.5c0.5-1.3,1.3-2.5,2.2-3.6
		c1-1,2.2-1.9,3.5-2.4c2.9-1.2,6.2-1.2,9.1,0c1.3,0.6,2.5,1.4,3.5,2.4s1.7,2.2,2.2,3.6c1,2.8,1,5.8,0,8.5c-0.5,1.3-1.3,2.5-2.3,3.6
		c-1,1-2.2,1.9-3.5,2.4C147.3,35.8,145.7,36.1,144.1,36.1z M137.7,25c0,1,0.2,2,0.5,2.9c0.3,0.8,0.8,1.6,1.4,2.3
		c0.6,0.6,1.3,1.2,2,1.5c1.6,0.7,3.5,0.7,5.1,0c0.8-0.4,1.5-0.9,2-1.5c0.6-0.7,1.1-1.5,1.4-2.3c0.7-1.9,0.7-3.9,0-5.8
		c-0.3-0.9-0.8-1.6-1.4-2.3c-0.6-0.7-1.3-1.2-2-1.5c-0.8-0.4-1.7-0.6-2.5-0.6c-0.9,0-1.7,0.2-2.5,0.6s-1.5,0.9-2,1.6
		c-0.6,0.7-1.1,1.5-1.4,2.3C137.9,23,137.7,24,137.7,25z"/>
</g>
<g id="Layer_2_1_">
	
		<image style="overflow:visible;enable-background:new    ;" width="1920" height="1081" xlink:href="B87F679E.jpg"  transform="matrix(0.9998 0 0 0.9998 -7791.7861 -7792.3799)">
	</image>
</g>
<text transform="matrix(1.1738 0 0 1 3.9151 33.6289)" class="st4 st5 st6">G</text>
<text transform="matrix(1 0 0 1 44.2119 24.2627)" class="st7 st8">RESIDENCES</text>
<text transform="matrix(1 0 0 1 45.7455 30.6765)" class="st4 st9 st10">Where Dreams Come Home</text>
<image style="display:none;overflow:visible;enable-background:new    ;" width="4168" height="4168" xlink:href="../../../Downloads/LOGO-IAS.png"  transform="matrix(7.071379e-03 0 0 7.071379e-03 113.6967 -3.6163)">
</image>
</svg>
