<?xml version="1.0" encoding="utf-8"?>
<!-- Generator: Adobe Illustrator 24.3.0, SVG Export Plug-In . SVG Version: 6.00 Build 0)  -->
<svg version="1.1" id="vv" xmlns="http://www.w3.org/2000/svg" xmlns:xlink="http://www.w3.org/1999/xlink" x="0px" y="0px"
	 viewBox="0 0 2272 1872" style="enable-background:new 0 0 2272 1872;" xml:space="preserve">
<style type="text/css">
	.st0{clip-path:url(#SVGID_2_);}
	.st1{fill:#BCDAF4;}
	.st2{fill:#FFFFFF;}
	.st3{fill:#FFF27D;}
	.st4{fill:#9CC4E2;}
	.st5{fill:#61723F;}
	.st6{fill:#809351;}
	.st7{fill:#5C7F2A;}
	.st8{fill:#6D9134;}
	.st9{fill:#7EAD3A;}
	.st10{fill:#88C138;}
	.st11{fill:#6EA22F;}
	.st12{clip-path:url(#SVGID_4_);fill:#C6BDB0;}
	.st13{clip-path:url(#SVGID_6_);}
	.st14{fill:#C6BDB0;}
	.st15{fill:#ADA59A;}
	.st16{fill:#BF3D28;}
	.st17{fill:#A52C14;}
	.st18{fill:#D5CDC0;}
	.st19{fill:#ADA599;}
	.st20{fill:#7FB1D6;}
	.st21{fill:#494949;}
	.st22{opacity:0.6;clip-path:url(#SVGID_8_);fill:#6D9134;enable-background:new    ;}
	.st23{fill:#725F4A;}
	.st24{fill:#594939;}
	.st25{fill:#72624C;}
	.st26{fill:#5E4F3C;}
	.st27{fill:#3A3A3A;}
</style>
<g id="Layer_1_1_">
</g>
<g id="Layer_2_1_">
</g>
<g>
	<defs>
		<rect id="SVGID_1_" width="2272" height="1872"/>
	</defs>
	<clipPath id="SVGID_2_">
		<use xlink:href="#SVGID_1_"  style="overflow:visible;"/>
	</clipPath>
	<g class="st0">
		<rect class="st1" width="2272" height="1872"/>
		<path class="st2" d="M201.4,828.4c19.2-1,38.6-4.2,57.6-1.4c36.1,5.3,82.1,39.8,113.8,21.7c12.9-7.3,12.1-25.7,17-39.6
			c9.6-27.6,43.9-38.7,73.1-35.7c29.1,3,56.4,15.8,85.4,19.9c22.7,3.2,45.9,0.8,68.7-1.6c50.8-5.3,102.7-11,148.8-32.9
			c-47.2,1.9-91.8-12.7-137.2-25.7c-24.9-7.1-49.8-14.3-74.7-21.4c-22.1-6.3-46.2-14.1-58.5-33.5c-8.3-13.1-9.7-29.4-15-43.9
			c-5.4-14.6-18-19.2-33.5-17.4c-32.5,3.7-66.4-9.5-87.9-34.1c-10-11.5-17.6-25.3-29.5-34.8s-32.9-14.3-43.9-3.7
			c-22.4-40.2-62.8-52.7-107-39.8c-3.1-8.9-6.3-17.7-9.4-26.6c-5.1-14.5-10.3-29.2-18.2-42.4c-20.4-34.4-58.5-57-98.4-60.5
			c-17.7-1.5-35.6,0.7-52.6,6v392.3C63.7,806,130.8,832,201.4,828.4z"/>
		
			<ellipse transform="matrix(0.7071 -0.7071 0.7071 0.7071 47.6665 921.3137)" class="st3" cx="1136" cy="403.1" rx="149.5" ry="149.5"/>
		<path class="st4" d="M2168.3,1263.4c62.4-17.1,99.1-81.5,82-143.9c-9.8-35.6-34.9-62.8-66.3-76.5c20.6-24.8,29.1-58.9,20-92.3
			c-14.9-54.4-71.1-86.5-125.5-71.5c-46.5,12.7-76.6,55.6-75.1,101.7c-18.5-6.1-38.9-7-59-1.5c-33,9.1-57.8,33.3-68.9,63.2
			c-5.6,0.5-11.3,1.4-16.9,2.8c-14.4-20.4-37.9-32.8-63-33.1c-0.4-1.8-0.9-3.6-1.4-5.3c-15.9-52.5-71.3-82.3-123.9-66.4
			c-39.4,11.9-66,46.1-70.1,84.6c-1.4,0.4-2.8,0.8-4.1,1.2c-19.3,5.8-36.3,15.8-50.3,28.6c-31.5-43.7-88.3-64.7-142.7-48.3
			c-12.7,3.8-24.4,9.5-34.9,16.5c-0.4-1.7-0.9-3.4-1.4-5.1c-15.9-52.5-71.3-82.3-123.9-66.4c-13.5,4.1-25.4,10.7-35.5,19.3
			c-25.1-8.8-53.1-10-80.4-1.8c-29.4,8.9-53.4,27.3-69.5,50.8c-25.4-9.3-53.9-10.7-81.8-2.3c-43.8,13.2-75.5,47.6-87.2,88.5
			c-7-3.5-14.3-6.3-21.9-8.5c-0.5-10.2-2.3-20.6-5.4-30.8c-20.7-68.6-93.1-107.4-161.7-86.6c-41.1,12.4-71.6,43.5-84.8,81.1
			c-19-2-38.8-0.3-58.3,5.6c-78.6,23.7-123.1,106.7-99.3,185.3c12.2,40.3,40,71.7,74.8,89.4c-39.9,37.4-57.5,95.6-40.6,151.5
			c23.7,78.6,106.7,123.1,185.3,99.3s123.1-106.7,99.3-185.3c-12.2-40.3-40-71.7-74.8-89.4c7.9-7.4,15-15.7,21.1-24.6
			c18.4,28.3,47.1,48.1,79.4,55.6c0.6,11.9,2.6,24,6.2,36c16.4,54.2,60.9,92.1,112.7,102.7c16.7,48.6,56.3,83.2,103,95.4
			c28.2,71.1,106.6,110,181.2,87.4c78.6-23.7,123.1-106.7,99.3-185.3c-3.9-13-9.5-25.1-16.4-36.1c2.9,2.2,6,4.3,9,6.3
			c0.9,6.6,2.4,13.2,4.3,19.8c19.3,63.9,83.4,101.9,147.5,90.1c25.8,75.3,106.8,117.2,183.6,94c53-16,90.4-58.9,102-109.3
			c10.7,27.5,32.5,48.2,58.7,58.2c-1.9,15-1,30.5,3.2,46c17.1,62.4,81.5,99.1,143.9,82c32-8.8,57.3-30,72-57.1
			c28.7,32.2,74.1,47.3,118.5,35.1c62.4-17.1,99.1-81.5,82-143.9s-81.5-99.1-143.9-82c-32,8.8-57.3,30-72,57.1
			c-5.7-6.4-12.1-12.1-19-17.1c22.7-13.9,38.8-36.1,45.4-61.4c9.4-0.2,19-1.6,28.4-4.2c62.4-17.1,99.1-81.5,82-143.9
			c-6-22.1-18-40.9-33.7-55.3c0.3-0.7,0.7-1.3,1-2C2121.6,1268.7,2145.1,1269.8,2168.3,1263.4z M1233,1385.6c2.5,1.3,5,2.5,7.6,3.7
			c3.1,7.2,6.7,14,10.7,20.5c-7.5-5.7-15.5-10.6-23.9-14.8C1229.4,1391.9,1231.3,1388.8,1233,1385.6z M1654.8,1383.8
			c2-3,3.9-6.2,5.6-9.3c20.5,10.7,43.8,16,67.6,14.6c-7.2,23.6-7.7,49.6,0,75c1.4,4.6,3,9.1,4.9,13.5c-0.2,0.5-0.3,0.9-0.5,1.4
			c-0.4-1.6-0.9-3.3-1.4-4.9C1718.7,1433.1,1690.3,1401.4,1654.8,1383.8z"/>
		<path class="st2" d="M2070.6,968.5c-19.2-1-38.6-4.2-57.6-1.4c-36.1,5.3-82.1,39.8-113.8,21.7c-12.9-7.3-12.1-25.7-17-39.6
			c-9.6-27.6-43.9-38.7-73.1-35.7c-29.1,3-56.4,15.8-85.4,19.9c-22.7,3.2-45.9,0.8-68.7-1.6c-50.8-5.3-102.7-11-148.8-32.9
			c47.2,1.9,91.8-12.7,137.2-25.7c24.9-7.1,49.8-14.3,74.7-21.4c22.1-6.3,46.2-14.1,58.5-33.5c8.3-13.1,9.7-29.4,15-43.9
			c5.4-14.6,18-19.2,33.5-17.4c32.5,3.7,66.4-9.5,87.9-34.1c10-11.5,17.6-25.3,29.5-34.8s32.9-14.3,43.9-3.7
			c22.4-40.2,62.8-52.7,107-39.8c3.1-8.9,6.3-17.7,9.4-26.6c5.1-14.5,10.3-29.2,18.2-42.4c20.4-34.4,58.5-57,98.4-60.5
			c17.7-1.5,35.6,0.7,52.6,6v392.3C2208.3,946.2,2141.2,972.1,2070.6,968.5z"/>
		<path class="st2" d="M680.9,1324c12-18,19-39.6,19-62.8c0-38.1-18.7-71.8-47.5-92.4c1.2-6.2,1.8-12.5,2-19
			c33.5-12.1,57.4-44.2,57.4-81.8c0-48-38.9-87-87-87c-36,0-67,21.9-80.2,53.1c-1.2,0-2.5-0.1-3.8-0.1c-17.7,0-34.4,4-49.4,11.3
			c-15.3-44.6-57.6-76.6-107.4-76.6c-40.1,0-75.3,20.8-95.5,52.1c-5-4.7-10.4-8.9-16.2-12.6c2.1-8.7,3.3-17.8,3.3-27.2
			c0-62.7-50.8-113.5-113.5-113.5c-37.6,0-70.9,18.3-91.6,46.5c-15.3-6.5-32.3-10-50.1-10c-71.9,0-130.1,58.3-130.1,130.1
			c0,36.9,15.4,70.2,40,93.9c-42.9,21.3-72.4,65.5-72.4,116.6c0,36,14.6,68.6,38.2,92.1c-24.2,38.7-38.2,84.5-38.2,133.5
			c0,139.2,112.8,252.1,252.1,252.1c108.8,0,201.5-68.9,236.8-165.5c18.9,10.7,40.7,16.8,64,16.8c71.9,0,130.1-58.3,130.1-130.1
			c0-37.4-15.8-71.1-41.1-94.9c2.5-2,4.8-4.2,7.1-6.4c14.4,14.2,32.6,24.5,53,29.4c-12,18-19,39.6-19,62.8
			c0,62.7,50.8,113.5,113.5,113.5s113.5-50.8,113.5-113.5C767.9,1380.8,730.8,1335.9,680.9,1324z M78.1,1150.7
			c8.5-4.2,16.5-9.4,23.9-15.3c8.3,28.4,27.3,52.2,52.4,66.7c-1.6,6.3-2.7,12.7-3.3,19.4c-11.6-1.9-23.5-3-35.7-3.3
			C110,1191.9,96.7,1168.6,78.1,1150.7z"/>
		<path class="st2" d="M2345.6,1596.6c-17.7-58.6-73.1-95.4-131.6-92c7.2-23.6,7.7-49.6,0-75c-12.6-41.6-44.2-72.3-82.5-85.3
			c-0.8-7.1-2.1-14.3-4.1-21.4c32.6-24.3,48.2-67.3,35.7-108.5c-15.9-52.5-71.3-82.3-123.9-66.4c-39.4,11.9-66,46.1-70.1,84.6
			c-1.4,0.4-2.8,0.8-4.1,1.2c-19.3,5.8-36.3,15.8-50.3,28.6c-31.5-43.7-88.3-64.7-142.7-48.3c-43.8,13.2-75.5,47.6-87.2,88.5
			c-7-3.5-14.3-6.3-21.9-8.5c-0.5-10.2-2.3-20.6-5.4-30.8c-20.7-68.6-93.1-107.4-161.7-86.6c-41.1,12.4-71.6,43.5-84.8,81.1
			c-19-2-38.8-0.3-58.3,5.6c-78.6,23.7-123.1,106.7-99.3,185.3c12.2,40.3,40,71.7,74.8,89.4c-39.9,37.4-57.5,95.6-40.6,151.5
			c23.7,78.6,106.7,123.1,185.3,99.3s123.1-106.7,99.3-185.3c-12.2-40.3-40-71.7-74.8-89.4c7.9-7.4,15-15.7,21.1-24.6
			c18.4,28.3,47.1,48.1,79.4,55.6c0.6,11.9,2.6,24,6.2,36c23.7,78.6,106.7,123.1,185.3,99.3c11.3-3.4,21.8-8,31.6-13.7
			c-13,30.8-15.7,66.1-5.3,100.6c23.7,78.6,106.7,123.1,185.3,99.3c65.2-19.7,107-80.2,105.7-145.2c4.9-0.7,9.9-1.8,14.8-3.3
			c0.4-0.1,0.7-0.2,1.1-0.3c32.4,38.1,85.5,55.6,136.4,40.2C2327.5,1737.6,2366.3,1665.2,2345.6,1596.6z"/>
		<path class="st5" d="M2178.8,895.3l-92.4,791.1l-185.8-796l-224.5,710.3l-234.3-715.2l-214.7,648.4l-224.5-672.8l-227.5,783.3
			L587.8,890.2l-210.5,725.6c0,0-208.3-707.6-204.4-725.3C169.3,901.9,69.5,1211.7,0,1433.4V1872h2272v-639.8L2178.8,895.3z"/>
		<g>
			<path class="st6" d="M587.8,890.2l-210.5,725.6c0,0-3.4-11.6-9.3-31.8v288h220.9V894.5L587.8,890.2z"/>
			<polygon class="st6" points="779.5,1629.3 779.5,1872 1002.5,1872 1002.5,861.4 			"/>
			<path class="st6" d="M172.9,890.6C169.3,901.9,69.5,1211.7,0,1433.4V1872h172.9V892.2C172.8,891.5,172.8,890.9,172.9,890.6z"/>
			<polygon class="st6" points="2178.8,895.3 2092.7,1632.6 2092.7,1872 2184.2,1872 2184.2,915 			"/>
			<polygon class="st6" points="1235.2,1509.5 1235.2,1872 1441.7,1872 1441.7,885.8 			"/>
			<polygon class="st6" points="1900.6,890.4 1676.1,1600.8 1673.1,1591.6 1673.1,1872 1904.5,1872 1904.5,907.1 			"/>
		</g>
		<g>
			<path class="st7" d="M1524.3,1409.8c-122-24.4-252.6-37.6-388.3-37.6c-124,0-243.7,11-356.5,31.5c140.9,7,291.1,10.7,447,10.7
				C1328.5,1414.5,1428.2,1412.8,1524.3,1409.8z"/>
			<path class="st7" d="M75.9,1736.5c-28.7,29.3-54.1,60-75.9,91.8v43.7h2272v-43.7c-18.3-26.7-39.2-52.6-62.4-77.6
				c-263.4,40-625,64.7-1024.1,64.7C741.2,1815.4,343.4,1784.8,75.9,1736.5z"/>
			<path class="st8" d="M1632.6,1434.9c-35.3-9.4-71.4-17.8-108.3-25.1c-96.2,3.1-195.8,4.7-297.8,4.7c-155.9,0-306.1-3.8-447-10.7
				c-42,7.6-83,16.6-122.9,26.7c164,9.8,342.3,15.2,528.9,15.2C1341.4,1445.7,1491.7,1441.9,1632.6,1434.9z"/>
			<path class="st9" d="M1758.3,1473.6c-40.4-14.3-82.4-27.2-125.6-38.7c-140.9,7-291.2,10.8-447.2,10.8
				c-186.5,0-364.9-5.4-528.9-15.2c-43.3,11-85.3,23.5-125.9,37.3c196.9,15.3,419.3,23.9,654.8,23.9
				C1388.8,1491.6,1582.4,1485.2,1758.3,1473.6z"/>
			<path class="st10" d="M367.9,1533.9c-42.9,20.6-83.4,43-121.3,66.8c253.7,32.9,581.2,52.7,938.8,52.7
				c319.6,0,615.3-15.8,855.6-42.7c-37.6-24.5-77.8-47.5-120.6-68.8c-215.8,19.4-467,30.6-735,30.6
				C882.5,1572.5,601.1,1558.3,367.9,1533.9z"/>
			<path class="st11" d="M1185.4,1491.6c-235.5,0-457.9-8.6-654.8-23.9c-57.3,19.5-111.7,41.7-162.7,66.2
				c233.2,24.3,514.6,38.6,817.5,38.6c268,0,519.2-11.1,735-30.6c-50.8-25.3-105-48.2-162.2-68.4
				C1582.4,1485.2,1388.8,1491.6,1185.4,1491.6z"/>
			<path class="st8" d="M151.5,1668.2c-27.2,21.9-52.5,44.7-75.6,68.3c267.5,48.2,665.3,78.8,1109.5,78.8
				c399.1,0,760.8-24.7,1024.1-64.7c-22.6-24.4-47.5-47.9-74.4-70.4c-255.2,33.7-587,54.1-949.7,54.1
				C781.4,1734.4,415.7,1709.1,151.5,1668.2z"/>
			<path class="st9" d="M246.6,1600.8c-33.9,21.3-65.6,43.9-95.1,67.5c264.1,40.9,629.8,66.2,1033.9,66.2
				c362.7,0,694.6-20.4,949.7-54.1c-29-24.3-60.5-47.5-94.1-69.5c-240.3,26.9-536,42.7-855.6,42.7
				C827.8,1653.5,500.3,1633.6,246.6,1600.8z"/>
		</g>
	</g>
</g>
<g>
	<defs>
		<rect id="SVGID_3_" width="2272" height="1872"/>
	</defs>
	<clipPath id="SVGID_4_">
		<use xlink:href="#SVGID_3_"  style="overflow:visible;"/>
	</clipPath>
	<path class="st12" d="M1288.3,1508.6"/>
</g>
<g>
	<defs>
		<rect id="SVGID_5_" width="2272" height="1872"/>
	</defs>
	<clipPath id="SVGID_6_">
		<use xlink:href="#SVGID_5_"  style="overflow:visible;"/>
	</clipPath>
	<g class="st13">
		<rect x="750.9" y="979.5" class="st14" width="734.2" height="521.5"/>
		<path class="st15" d="M1485.1,979.5H750.9v138.6c205.9,0,530.1,0,734.2,0L1485.1,979.5L1485.1,979.5z"/>
		<path class="st15" d="M1485.1,979.5h-213.6c-1.8,105.4-6.5,397.4-3.5,521.5h217.1V979.5z"/>
		<polygon class="st16" points="876.5,1074.2 1410.1,1074.2 1554.5,802.1 730.8,802.1 		"/>
		<g>
			<polygon class="st17" points="821.4,971.3 1464.7,971.3 1489.1,925.3 796.8,925.3 			"/>
			<polygon class="st17" points="876.5,1074.2 1410.1,1074.2 1440.3,1017.3 846,1017.3 			"/>
			<polygon class="st17" points="1537.9,833.4 747.5,833.4 772.1,879.3 1513.5,879.3 			"/>
		</g>
		<polygon class="st17" points="1554.5,802.1 1424.1,802.1 1209.3,1074.2 1410.1,1074.2 		"/>
		<g>
			<polygon class="st18" points="912,1514.8 480.1,1514.8 480.1,1041.2 696,763.3 912,1041.2 			"/>
			<polygon class="st14" points="480.1,1041.2 480.1,1514.8 696,1514.8 696,763.3 			"/>
			<polygon class="st19" points="912,1118.1 912,1041.2 696,763.3 480.1,1041.2 480.1,1110.2 695,850.5 			"/>
			<g>
				<polygon class="st17" points="458,1104 420.5,1074.4 696.1,724.6 969.4,1074.5 931.8,1103.9 696,802.1 				"/>
			</g>
			<polygon class="st16" points="420.5,1074.4 458,1104 696,802.1 696,802.2 696,724.7 			"/>
			<g>
				<rect x="562.6" y="1139.1" class="st1" width="269.4" height="244.5"/>
				<path class="st20" d="M824.5,1139.1H562.6V1302C627.7,1293.2,750.5,1257.3,824.5,1139.1z"/>
				<path class="st21" d="M555,1132.3v251.2h282.2v-251.2H555z M823.6,1211.7h-50.2v-65.9h50.2V1211.7z M630.1,1225.2h58.1v64.2
					h-58.1V1225.2z M616.5,1289.4h-48.1v-64.2h48.1V1289.4z M688.2,1211.7h-58.1v-65.9h58.1V1211.7z M701.7,1145.8h58.1v65.9h-58.1
					V1145.8z M688.2,1302.9v67.1h-58.1v-67.1H688.2z M701.7,1302.9h58.1v67.1h-58.1V1302.9z M701.7,1289.4v-64.2h58.1v64.2H701.7z
					 M773.4,1225.2h50.2v64.2h-50.2V1225.2z M616.5,1145.8v65.9h-48.1v-65.9H616.5z M568.5,1302.9h48.1v67.1h-48.1V1302.9z
					 M773.4,1370v-67.1h50.2v67.1H773.4z"/>
			</g>
			<rect x="600" y="1004.1" class="st21" width="189.9" height="74.3"/>
		</g>
		<g>
			<polygon class="st18" points="1770.6,1514.8 1338.6,1514.8 1338.6,1041.2 1554.6,763.3 1770.6,1041.2 			"/>
			<polygon class="st14" points="1338.6,1041.2 1338.6,1514.8 1554.6,1514.8 1554.6,763.3 			"/>
			<polygon class="st19" points="1770.6,1118.1 1770.6,1041.2 1554.6,763.3 1338.6,1041.2 1338.6,1110.2 1553.5,850.5 			"/>
			<g>
				<polygon class="st17" points="1316.6,1104 1279,1074.4 1554.7,724.6 1828,1074.5 1790.3,1103.9 1554.5,802.1 				"/>
			</g>
			<polygon class="st16" points="1279,1074.4 1316.6,1104 1554.5,802.1 1554.6,802.2 1554.6,724.7 			"/>
			<rect x="1421.2" y="1139.1" class="st1" width="269.4" height="244.5"/>
			<path class="st20" d="M1683,1139.1h-261.8V1302C1486.3,1293.2,1609.1,1257.3,1683,1139.1z"/>
			<path class="st21" d="M1413.5,1132.3v251.2h282.2v-251.2H1413.5z M1682.2,1211.7H1632v-65.9h50.2V1211.7z M1488.6,1225.2h58.1
				v64.2h-58.1V1225.2z M1475.1,1289.4H1427v-64.2h48.1V1289.4z M1546.8,1211.7h-58.1v-65.9h58.1V1211.7z M1560.3,1145.8h58.1v65.9
				h-58.1V1145.8z M1546.8,1302.9v67.1h-58.1v-67.1H1546.8z M1560.3,1302.9h58.1v67.1h-58.1V1302.9z M1560.3,1289.4v-64.2h58.1v64.2
				H1560.3z M1631.9,1225.2h50.2v64.2h-50.2V1225.2z M1475.1,1145.8v65.9H1427v-65.9H1475.1z M1427.1,1302.9h48.1v67.1h-48.1V1302.9
				z M1631.9,1370v-67.1h50.2v67.1H1631.9z"/>
			<rect x="1458.5" y="1004.1" class="st21" width="189.9" height="74.3"/>
		</g>
	</g>
</g>
<g>
	<defs>
		<rect id="SVGID_7_" width="2272" height="1872"/>
	</defs>
	<clipPath id="SVGID_8_">
		<use xlink:href="#SVGID_7_"  style="overflow:visible;"/>
	</clipPath>
	<polygon class="st22" points="1828,1624.5 1790.3,1617.2 1770.6,1623.5 1770.6,1613.6 1770.6,1514.8 1554.6,1514.8 1338.6,1514.8 
		1338.6,1518.2 1268,1518.2 912,1518.2 912,1514.8 696,1514.8 480.1,1514.8 480.1,1615.6 480.1,1624.1 458,1617.1 420.5,1624.5 
		696,1711.7 696,1711.7 696.1,1711.7 756.6,1692.4 1424.1,1692.4 1493.7,1692.4 1554.6,1711.7 1554.6,1711.7 1554.7,1711.7 	"/>
</g>
<g>
	<g>
		<rect x="300" y="1347.4" class="st23" width="37.6" height="524.6"/>
	</g>
	<g>
		<path class="st24" d="M337.6,1486.7v-139.4H300v139.5C309.7,1488.6,322.3,1489.3,337.6,1486.7z"/>
	</g>
	<g>
		<path class="st16" d="M549.1,1189.1H101.4c-26.2,0-47.5,21.3-47.5,47.5v167.8c0,26.2,21.3,47.5,47.5,47.5h447.8
			c26.2,0,47.5-21.3,47.5-47.5v-167.8C596.6,1210.3,575.4,1189.1,549.1,1189.1z"/>
	</g>
	<g>
		<path class="st17" d="M549.1,1189.1H101.4c-20.9,0-38.6,13.5-44.9,32.2c8.4-8.6,20-14,33-14H523c25.4,0,46,20.6,46,46v162.5
			c0,14.6-6.8,27.7-17.5,36.1c25.2-1.2,45.3-22,45.3-47.4v-167.8C596.6,1210.3,575.4,1189.1,549.1,1189.1z"/>
	</g>
</g>
<g>
	<path class="st2" d="M107.7,1288.6h36.1v10.9h-22.7v13.5h21.2v10.9h-21.2v23.7h-13.4C107.7,1347.6,107.7,1288.6,107.7,1288.6z"/>
	<path class="st2" d="M213.8,1317.5c0,19.3-11.7,31.1-29,31.1c-17.5,0-27.8-13.2-27.8-30c0-17.7,11.3-30.9,28.7-30.9
		C203.9,1287.6,213.8,1301.2,213.8,1317.5z M171.2,1318.3c0,11.6,5.4,19.7,14.4,19.7s14.2-8.6,14.2-20c0-10.6-5.1-19.7-14.3-19.7
		C176.4,1298.2,171.2,1306.8,171.2,1318.3z"/>
	<path class="st2" d="M228.5,1289.4c4.3-0.7,10.7-1.2,17.8-1.2c8.8,0,14.9,1.3,19.1,4.6c3.5,2.8,5.4,6.9,5.4,12.3
		c0,7.5-5.3,12.7-10.4,14.5v0.3c4.1,1.7,6.4,5.6,7.9,11c1.8,6.7,3.7,14.4,4.8,16.6h-13.7c-1-1.7-2.4-6.5-4.1-13.7
		c-1.6-7.4-4.1-9.4-9.5-9.5h-4v23.2h-13.2L228.5,1289.4L228.5,1289.4z M241.7,1314.8h5.3c6.7,0,10.6-3.3,10.6-8.5
		c0-5.4-3.7-8.1-9.8-8.2c-3.2,0-5.1,0.3-6,0.4v16.3H241.7z"/>
	<path class="st2" d="M310,1289.4c4.3-0.7,10.7-1.2,17.8-1.2c8.8,0,14.9,1.3,19.1,4.6c3.5,2.8,5.4,6.9,5.4,12.3
		c0,7.5-5.3,12.7-10.4,14.5v0.3c4.1,1.7,6.4,5.6,7.9,11c1.8,6.7,3.7,14.4,4.8,16.6h-13.7c-1-1.7-2.4-6.5-4.1-13.7
		c-1.6-7.4-4.1-9.4-9.5-9.5h-4v23.2H310V1289.4z M323.2,1314.8h5.3c6.7,0,10.6-3.3,10.6-8.5c0-5.4-3.7-8.1-9.8-8.2
		c-3.2,0-5.1,0.3-6,0.4v16.3H323.2z"/>
	<path class="st2" d="M403,1322.7h-21.7v14h24.2v10.9h-37.6v-59h36.4v10.9h-23v12.3H403V1322.7z"/>
	<path class="st2" d="M420.6,1347.6v-59h15.6l12.3,21.6c3.5,6.2,7,13.6,9.6,20.2h0.3c-0.9-7.8-1.1-15.8-1.1-24.6v-17.2h12.3v59h-14
		l-12.6-22.8c-3.5-6.3-7.4-13.9-10.2-20.8l-0.3,0.1c0.4,7.8,0.5,16.1,0.5,25.7v17.8L420.6,1347.6L420.6,1347.6z"/>
	<path class="st2" d="M498.3,1299.8h-15.8v-11.2h45.3v11.2h-16.1v47.8h-13.4V1299.8z"/>
</g>
<rect x="938.1" y="1145.6" class="st1" width="148.6" height="74.7"/>
<path class="st20" d="M1082.5,1145.6H938.1v49.8C974,1192.7,1041.7,1181.7,1082.5,1145.6z"/>
<path class="st21" d="M933.9,1143.5v76.7h155.6v-76.7H933.9z M1082,1167.8h-27.7v-20.1h27.7V1167.8z M975.3,1171.9h32.1v19.6h-32.1
	V1171.9z M967.8,1191.5h-26.5v-19.6h26.5V1191.5z M1007.3,1167.8h-32.1v-20.1h32.1V1167.8z M1014.8,1147.7h32.1v20.1h-32.1
	L1014.8,1147.7L1014.8,1147.7z M1007.3,1195.7v20.5h-32.1v-20.5H1007.3z M1014.8,1195.7h32.1v20.5h-32.1L1014.8,1195.7
	L1014.8,1195.7z M1014.8,1191.5v-19.6h32.1v19.6H1014.8z M1054.3,1171.9h27.7v19.6h-27.7V1171.9z M967.8,1147.7v20.1h-26.5v-20.1
	H967.8z M941.3,1195.7h26.5v20.5h-26.5V1195.7z M1054.3,1216.1v-20.5h27.7v20.5H1054.3z"/>
<rect x="1140.2" y="1145.6" class="st1" width="148.6" height="74.7"/>
<path class="st20" d="M1284.7,1145.6h-144.4v49.8C1176.1,1192.7,1243.9,1181.7,1284.7,1145.6z"/>
<path class="st21" d="M1136,1143.5v76.7h155.6v-76.7H1136z M1284.2,1167.8h-27.7v-20.1h27.7V1167.8z M1177.4,1171.9h32.1v19.6h-32.1
	V1171.9z M1170,1191.5h-26.5v-19.6h26.5V1191.5z M1209.5,1167.8h-32.1v-20.1h32.1V1167.8z M1216.9,1147.7h32.1v20.1h-32.1V1147.7z
	 M1209.5,1195.7v20.5h-32.1v-20.5H1209.5z M1216.9,1195.7h32.1v20.5h-32.1V1195.7z M1216.9,1191.5v-19.6h32.1v19.6H1216.9z
	 M1256.5,1171.9h27.7v19.6h-27.7V1171.9z M1170,1147.7v20.1h-26.5v-20.1H1170z M1143.5,1195.7h26.5v20.5h-26.5V1195.7z
	 M1256.5,1216.1v-20.5h27.7v20.5H1256.5z"/>
<rect x="1030.8" y="1285.9" class="st25" width="165.2" height="215"/>
<rect x="1113.4" y="1285.9" class="st26" width="82.6" height="215"/>
<rect x="1088.7" y="1377.1" class="st21" width="9.1" height="52.6"/>
<rect x="1126.9" y="1377.1" class="st27" width="9.1" height="52.6"/>
<image style="overflow:visible;" width="149" height="150" xlink:href="favicon.png"  transform="matrix(2.352 0 0 2.352 965.2723 219.0006)">
</image>
</svg>
